<mxfile host="app.diagrams.net" agent="Mozilla/5.0 (Windows NT 10.0; Win64; x64) AppleWebKit/537.36 (KHTML, like Gecko) Chrome/137.0.0.0 Safari/537.36" version="27.1.3">
  <diagram name="페이지-1" id="VLc27-8nG-l458hBpLI9">
    <mxGraphModel dx="2253" dy="1964" grid="1" gridSize="10" guides="1" tooltips="1" connect="1" arrows="1" fold="1" page="1" pageScale="1" pageWidth="827" pageHeight="1169" math="0" shadow="0">
      <root>
        <mxCell id="0" />
        <mxCell id="1" parent="0" />
        <mxCell id="-6EiVWepB2KhwNU12dC6-2" value="DeviceLocationProvider" style="swimlane;fontStyle=1;align=center;verticalAlign=top;childLayout=stackLayout;horizontal=1;startSize=26;horizontalStack=0;resizeParent=1;resizeParentMax=0;resizeLast=0;collapsible=1;marginBottom=0;whiteSpace=wrap;html=1;" parent="1" vertex="1">
          <mxGeometry x="550" y="40" width="160" height="34" as="geometry" />
        </mxCell>
        <mxCell id="-6EiVWepB2KhwNU12dC6-4" value="" style="line;strokeWidth=1;fillColor=none;align=left;verticalAlign=middle;spacingTop=-1;spacingLeft=3;spacingRight=3;rotatable=0;labelPosition=right;points=[];portConstraint=eastwest;strokeColor=inherit;" parent="-6EiVWepB2KhwNU12dC6-2" vertex="1">
          <mxGeometry y="26" width="160" height="8" as="geometry" />
        </mxCell>
        <mxCell id="-6EiVWepB2KhwNU12dC6-6" value="SimulatedLocationProvider" style="swimlane;fontStyle=1;align=center;verticalAlign=top;childLayout=stackLayout;horizontal=1;startSize=26;horizontalStack=0;resizeParent=1;resizeParentMax=0;resizeLast=0;collapsible=1;marginBottom=0;whiteSpace=wrap;html=1;" parent="1" vertex="1">
          <mxGeometry x="550" y="90" width="160" height="34" as="geometry" />
        </mxCell>
        <mxCell id="-6EiVWepB2KhwNU12dC6-7" value="" style="line;strokeWidth=1;fillColor=none;align=left;verticalAlign=middle;spacingTop=-1;spacingLeft=3;spacingRight=3;rotatable=0;labelPosition=right;points=[];portConstraint=eastwest;strokeColor=inherit;" parent="-6EiVWepB2KhwNU12dC6-6" vertex="1">
          <mxGeometry y="26" width="160" height="8" as="geometry" />
        </mxCell>
        <mxCell id="-6EiVWepB2KhwNU12dC6-8" value="«interface»&lt;br&gt;&lt;b&gt;ILocationProvider&lt;/b&gt;&lt;div&gt;&lt;b&gt;&lt;br&gt;&lt;/b&gt;&lt;/div&gt;&lt;div&gt;&lt;b&gt;{get} Latitude : double&amp;nbsp;&lt;/b&gt;&lt;/div&gt;&lt;div&gt;&lt;b&gt;{get} Longitude : double&lt;/b&gt;&lt;/div&gt;&lt;div&gt;&lt;b&gt;{get} Altitude : double&lt;/b&gt;&lt;/div&gt;&lt;div&gt;&lt;b&gt;&lt;br&gt;&lt;/b&gt;&lt;/div&gt;&lt;div&gt;&lt;b&gt;&amp;lt;&amp;lt;event&amp;gt;&amp;gt; OnLocationUpdated : Action&amp;lt;double, double, double, float, double&amp;gt;&lt;/b&gt;&lt;/div&gt;&lt;div&gt;&lt;b&gt;&lt;br&gt;&lt;/b&gt;&lt;/div&gt;&lt;div&gt;&lt;b&gt;Start() : void&lt;/b&gt;&lt;/div&gt;&lt;div&gt;&lt;b&gt;Stop() : void&lt;/b&gt;&lt;/div&gt;" style="html=1;whiteSpace=wrap;" parent="1" vertex="1">
          <mxGeometry x="220" y="17" width="290" height="200" as="geometry" />
        </mxCell>
        <mxCell id="-6EiVWepB2KhwNU12dC6-9" value="" style="endArrow=block;endSize=16;endFill=0;html=1;rounded=0;" parent="1" source="-6EiVWepB2KhwNU12dC6-2" target="-6EiVWepB2KhwNU12dC6-8" edge="1">
          <mxGeometry width="160" relative="1" as="geometry">
            <mxPoint x="540" y="240" as="sourcePoint" />
            <mxPoint x="700" y="240" as="targetPoint" />
          </mxGeometry>
        </mxCell>
        <mxCell id="-6EiVWepB2KhwNU12dC6-10" value="" style="endArrow=block;endSize=16;endFill=0;html=1;rounded=0;" parent="1" source="-6EiVWepB2KhwNU12dC6-6" target="-6EiVWepB2KhwNU12dC6-8" edge="1">
          <mxGeometry width="160" relative="1" as="geometry">
            <mxPoint x="697" y="53" as="sourcePoint" />
            <mxPoint x="610" y="50" as="targetPoint" />
          </mxGeometry>
        </mxCell>
        <mxCell id="-6EiVWepB2KhwNU12dC6-16" style="edgeStyle=orthogonalEdgeStyle;rounded=0;orthogonalLoop=1;jettySize=auto;html=1;" parent="1" source="-6EiVWepB2KhwNU12dC6-12" target="-6EiVWepB2KhwNU12dC6-8" edge="1">
          <mxGeometry relative="1" as="geometry" />
        </mxCell>
        <mxCell id="-6EiVWepB2KhwNU12dC6-12" value="GPSLocationService" style="swimlane;fontStyle=1;align=center;verticalAlign=top;childLayout=stackLayout;horizontal=1;startSize=26;horizontalStack=0;resizeParent=1;resizeParentMax=0;resizeLast=0;collapsible=1;marginBottom=0;whiteSpace=wrap;html=1;" parent="1" vertex="1">
          <mxGeometry x="-200" y="14" width="370" height="268" as="geometry" />
        </mxCell>
        <mxCell id="-6EiVWepB2KhwNU12dC6-19" value="{+get, - set} latitude : double" style="text;strokeColor=none;fillColor=none;align=left;verticalAlign=top;spacingLeft=4;spacingRight=4;overflow=hidden;rotatable=0;points=[[0,0.5],[1,0.5]];portConstraint=eastwest;whiteSpace=wrap;html=1;" parent="-6EiVWepB2KhwNU12dC6-12" vertex="1">
          <mxGeometry y="26" width="370" height="26" as="geometry" />
        </mxCell>
        <mxCell id="-6EiVWepB2KhwNU12dC6-20" value="{+get, - set} longitude : double" style="text;strokeColor=none;fillColor=none;align=left;verticalAlign=top;spacingLeft=4;spacingRight=4;overflow=hidden;rotatable=0;points=[[0,0.5],[1,0.5]];portConstraint=eastwest;whiteSpace=wrap;html=1;" parent="-6EiVWepB2KhwNU12dC6-12" vertex="1">
          <mxGeometry y="52" width="370" height="26" as="geometry" />
        </mxCell>
        <mxCell id="-6EiVWepB2KhwNU12dC6-21" value="{+get, - set} altitude : double" style="text;strokeColor=none;fillColor=none;align=left;verticalAlign=top;spacingLeft=4;spacingRight=4;overflow=hidden;rotatable=0;points=[[0,0.5],[1,0.5]];portConstraint=eastwest;whiteSpace=wrap;html=1;" parent="-6EiVWepB2KhwNU12dC6-12" vertex="1">
          <mxGeometry y="78" width="370" height="26" as="geometry" />
        </mxCell>
        <mxCell id="-6EiVWepB2KhwNU12dC6-22" value="{+get, - set} accuracy : float" style="text;strokeColor=none;fillColor=none;align=left;verticalAlign=top;spacingLeft=4;spacingRight=4;overflow=hidden;rotatable=0;points=[[0,0.5],[1,0.5]];portConstraint=eastwest;whiteSpace=wrap;html=1;" parent="-6EiVWepB2KhwNU12dC6-12" vertex="1">
          <mxGeometry y="104" width="370" height="26" as="geometry" />
        </mxCell>
        <mxCell id="-6EiVWepB2KhwNU12dC6-25" value="{+get, - set} timestamp : double" style="text;strokeColor=none;fillColor=none;align=left;verticalAlign=top;spacingLeft=4;spacingRight=4;overflow=hidden;rotatable=0;points=[[0,0.5],[1,0.5]];portConstraint=eastwest;whiteSpace=wrap;html=1;" parent="-6EiVWepB2KhwNU12dC6-12" vertex="1">
          <mxGeometry y="130" width="370" height="26" as="geometry" />
        </mxCell>
        <mxCell id="-6EiVWepB2KhwNU12dC6-31" value="{+get, -set} mapCenter : MapLocation" style="text;strokeColor=none;fillColor=none;align=left;verticalAlign=top;spacingLeft=4;spacingRight=4;overflow=hidden;rotatable=0;points=[[0,0.5],[1,0.5]];portConstraint=eastwest;whiteSpace=wrap;html=1;" parent="-6EiVWepB2KhwNU12dC6-12" vertex="1">
          <mxGeometry y="156" width="370" height="26" as="geometry" />
        </mxCell>
        <mxCell id="-6EiVWepB2KhwNU12dC6-32" value="&amp;lt;&amp;lt;event&amp;gt;&amp;gt; onCenterUpdated : Action&amp;lt;MapLocation&amp;gt;" style="text;strokeColor=none;fillColor=none;align=left;verticalAlign=top;spacingLeft=4;spacingRight=4;overflow=hidden;rotatable=0;points=[[0,0.5],[1,0.5]];portConstraint=eastwest;whiteSpace=wrap;html=1;" parent="-6EiVWepB2KhwNU12dC6-12" vertex="1">
          <mxGeometry y="182" width="370" height="26" as="geometry" />
        </mxCell>
        <mxCell id="-6EiVWepB2KhwNU12dC6-14" value="" style="line;strokeWidth=1;fillColor=none;align=left;verticalAlign=middle;spacingTop=-1;spacingLeft=3;spacingRight=3;rotatable=0;labelPosition=right;points=[];portConstraint=eastwest;strokeColor=inherit;" parent="-6EiVWepB2KhwNU12dC6-12" vertex="1">
          <mxGeometry y="208" width="370" height="8" as="geometry" />
        </mxCell>
        <mxCell id="-6EiVWepB2KhwNU12dC6-18" value="- OnLocationUpdated(lat, lng, alt, accuracy, timestamp) : void" style="text;strokeColor=none;fillColor=none;align=left;verticalAlign=top;spacingLeft=4;spacingRight=4;overflow=hidden;rotatable=0;points=[[0,0.5],[1,0.5]];portConstraint=eastwest;whiteSpace=wrap;html=1;" parent="-6EiVWepB2KhwNU12dC6-12" vertex="1">
          <mxGeometry y="216" width="370" height="26" as="geometry" />
        </mxCell>
        <mxCell id="-6EiVWepB2KhwNU12dC6-15" value="- CenterMap() : void" style="text;strokeColor=none;fillColor=none;align=left;verticalAlign=top;spacingLeft=4;spacingRight=4;overflow=hidden;rotatable=0;points=[[0,0.5],[1,0.5]];portConstraint=eastwest;whiteSpace=wrap;html=1;" parent="-6EiVWepB2KhwNU12dC6-12" vertex="1">
          <mxGeometry y="242" width="370" height="26" as="geometry" />
        </mxCell>
        <mxCell id="-6EiVWepB2KhwNU12dC6-17" value="현재 위치 기반으로&amp;nbsp;&lt;div&gt;맵의 중심을 갱신&lt;/div&gt;" style="shape=note;whiteSpace=wrap;html=1;backgroundOutline=1;darkOpacity=0.05;size=12;" parent="1" vertex="1">
          <mxGeometry x="40" y="-60" width="130" height="70" as="geometry" />
        </mxCell>
        <mxCell id="-6EiVWepB2KhwNU12dC6-26" value="&lt;div&gt;&amp;lt;&amp;lt;struct&amp;gt;&amp;gt;&lt;/div&gt;MapLocation" style="swimlane;fontStyle=1;align=center;verticalAlign=top;childLayout=stackLayout;horizontal=1;startSize=40;horizontalStack=0;resizeParent=1;resizeParentMax=0;resizeLast=0;collapsible=1;marginBottom=0;whiteSpace=wrap;html=1;" parent="1" vertex="1">
          <mxGeometry x="-200" y="-115" width="160" height="100" as="geometry" />
        </mxCell>
        <mxCell id="-6EiVWepB2KhwNU12dC6-27" value="+ latitude : double" style="text;strokeColor=none;fillColor=none;align=left;verticalAlign=top;spacingLeft=4;spacingRight=4;overflow=hidden;rotatable=0;points=[[0,0.5],[1,0.5]];portConstraint=eastwest;whiteSpace=wrap;html=1;" parent="-6EiVWepB2KhwNU12dC6-26" vertex="1">
          <mxGeometry y="40" width="160" height="26" as="geometry" />
        </mxCell>
        <mxCell id="-6EiVWepB2KhwNU12dC6-30" value="+ longitude : double" style="text;strokeColor=none;fillColor=none;align=left;verticalAlign=top;spacingLeft=4;spacingRight=4;overflow=hidden;rotatable=0;points=[[0,0.5],[1,0.5]];portConstraint=eastwest;whiteSpace=wrap;html=1;" parent="-6EiVWepB2KhwNU12dC6-26" vertex="1">
          <mxGeometry y="66" width="160" height="26" as="geometry" />
        </mxCell>
        <mxCell id="-6EiVWepB2KhwNU12dC6-28" value="" style="line;strokeWidth=1;fillColor=none;align=left;verticalAlign=middle;spacingTop=-1;spacingLeft=3;spacingRight=3;rotatable=0;labelPosition=right;points=[];portConstraint=eastwest;strokeColor=inherit;" parent="-6EiVWepB2KhwNU12dC6-26" vertex="1">
          <mxGeometry y="92" width="160" height="8" as="geometry" />
        </mxCell>
        <mxCell id="QJ-8SLgGT916WIyHlRKE-16" style="edgeStyle=orthogonalEdgeStyle;rounded=0;orthogonalLoop=1;jettySize=auto;html=1;" edge="1" parent="1" source="QJ-8SLgGT916WIyHlRKE-12" target="-6EiVWepB2KhwNU12dC6-12">
          <mxGeometry relative="1" as="geometry" />
        </mxCell>
        <mxCell id="QJ-8SLgGT916WIyHlRKE-21" style="edgeStyle=orthogonalEdgeStyle;rounded=0;orthogonalLoop=1;jettySize=auto;html=1;entryX=0.5;entryY=0;entryDx=0;entryDy=0;" edge="1" parent="1" source="QJ-8SLgGT916WIyHlRKE-12" target="QJ-8SLgGT916WIyHlRKE-17">
          <mxGeometry relative="1" as="geometry" />
        </mxCell>
        <mxCell id="QJ-8SLgGT916WIyHlRKE-12" value="GoogleMapTile" style="swimlane;fontStyle=1;align=center;verticalAlign=top;childLayout=stackLayout;horizontal=1;startSize=26;horizontalStack=0;resizeParent=1;resizeParentMax=0;resizeLast=0;collapsible=1;marginBottom=0;whiteSpace=wrap;html=1;" vertex="1" parent="1">
          <mxGeometry x="-573" y="30" width="160" height="60" as="geometry" />
        </mxCell>
        <mxCell id="QJ-8SLgGT916WIyHlRKE-14" value="" style="line;strokeWidth=1;fillColor=none;align=left;verticalAlign=middle;spacingTop=-1;spacingLeft=3;spacingRight=3;rotatable=0;labelPosition=right;points=[];portConstraint=eastwest;strokeColor=inherit;" vertex="1" parent="QJ-8SLgGT916WIyHlRKE-12">
          <mxGeometry y="26" width="160" height="8" as="geometry" />
        </mxCell>
        <mxCell id="QJ-8SLgGT916WIyHlRKE-15" value="RenderMap()" style="text;strokeColor=none;fillColor=none;align=left;verticalAlign=top;spacingLeft=4;spacingRight=4;overflow=hidden;rotatable=0;points=[[0,0.5],[1,0.5]];portConstraint=eastwest;whiteSpace=wrap;html=1;" vertex="1" parent="QJ-8SLgGT916WIyHlRKE-12">
          <mxGeometry y="34" width="160" height="26" as="geometry" />
        </mxCell>
        <mxCell id="QJ-8SLgGT916WIyHlRKE-17" value="GoogleStaticMapService" style="swimlane;fontStyle=1;align=center;verticalAlign=top;childLayout=stackLayout;horizontal=1;startSize=26;horizontalStack=0;resizeParent=1;resizeParentMax=0;resizeLast=0;collapsible=1;marginBottom=0;whiteSpace=wrap;html=1;" vertex="1" parent="1">
          <mxGeometry x="-611.5" y="200" width="237" height="60" as="geometry" />
        </mxCell>
        <mxCell id="QJ-8SLgGT916WIyHlRKE-19" value="" style="line;strokeWidth=1;fillColor=none;align=left;verticalAlign=middle;spacingTop=-1;spacingLeft=3;spacingRight=3;rotatable=0;labelPosition=right;points=[];portConstraint=eastwest;strokeColor=inherit;" vertex="1" parent="QJ-8SLgGT916WIyHlRKE-17">
          <mxGeometry y="26" width="237" height="8" as="geometry" />
        </mxCell>
        <mxCell id="QJ-8SLgGT916WIyHlRKE-20" value="LoadMap(onCompleted) : IEnumerator" style="text;strokeColor=none;fillColor=none;align=left;verticalAlign=top;spacingLeft=4;spacingRight=4;overflow=hidden;rotatable=0;points=[[0,0.5],[1,0.5]];portConstraint=eastwest;whiteSpace=wrap;html=1;" vertex="1" parent="QJ-8SLgGT916WIyHlRKE-17">
          <mxGeometry y="34" width="237" height="26" as="geometry" />
        </mxCell>
      </root>
    </mxGraphModel>
  </diagram>
</mxfile>
